<svg width="15" height="16" viewBox="0 0 15 16" fill="none" xmlns="http://www.w3.org/2000/svg">
<g id="Checkbox-1">
<path id="Vector" d="M1 4.10016V11.9002C1 12.8102 1 13.2651 1.17712 13.6127C1.33291 13.9184 1.58132 14.1673 1.88709 14.323C2.23435 14.5 2.68918 14.5 3.59749 14.5H11.4025C12.3108 14.5 12.765 14.5 13.1123 14.323C13.418 14.1673 13.6673 13.9184 13.823 13.6127C14 13.2654 14 12.8112 14 11.9029V4.09749C14 3.18918 14 2.73435 13.823 2.38709C13.6673 2.08132 13.418 1.83291 13.1123 1.67712C12.7647 1.5 12.3102 1.5 11.4002 1.5H3.60016C2.69007 1.5 2.23469 1.5 1.88709 1.67712C1.58132 1.83291 1.33291 2.08132 1.17712 2.38709C1 2.73469 1 3.19007 1 4.10016Z" stroke="#A2A2A2" stroke-width="1.66667" stroke-linecap="round" stroke-linejoin="round"/>
</g>
</svg>
