<?xml version="1.0" encoding="utf-8"?><svg viewBox="0 0 842 746" xmlns="http://www.w3.org/2000/svg" xmlns:xlink="http://www.w3.org/1999/xlink"><style>:root>svg{display:none}:root>svg:target{display:block}</style><svg fill="none" viewBox="0 0 15 16" id="checkbox" xmlns="http://www.w3.org/2000/svg"><path d="M1 4.1v7.8c0 .91 0 1.365.177 1.713.156.305.404.554.71.71.347.177.802.177 1.71.177h7.805c.909 0 1.363 0 1.71-.177.306-.156.555-.405.711-.71.177-.348.177-.802.177-1.71V4.097c0-.908 0-1.363-.177-1.71a1.626 1.626 0 00-.71-.71C12.764 1.5 12.31 1.5 11.4 1.5H3.6c-.91 0-1.365 0-1.713.177a1.624 1.624 0 00-.71.71C1 2.735 1 3.19 1 4.1z" stroke="#A2A2A2" stroke-width="1.667" stroke-linecap="round" stroke-linejoin="round"/></svg><svg fill="none" viewBox="0 0 15 15" id="checkboxActive" xmlns="http://www.w3.org/2000/svg"><path d="M4.25 7.5l2.438 2.438 4.062-4.876M1 11.4V3.6c0-.91 0-1.365.177-1.713.156-.306.404-.554.71-.71C2.235 1 2.69 1 3.6 1h7.8c.91 0 1.365 0 1.712.177.306.156.555.404.711.71.177.347.177.802.177 1.71v7.806c0 .908 0 1.362-.177 1.71a1.626 1.626 0 01-.71.71c-.348.177-.802.177-1.71.177H3.596c-.908 0-1.363 0-1.71-.177a1.625 1.625 0 01-.71-.71C1 12.765 1 12.31 1 11.4z" stroke="#A2A2A2" stroke-width="1.667" stroke-linecap="round" stroke-linejoin="round"/></svg><svg fill="none" viewBox="0 0 842 746" id="grid" xmlns="http://www.w3.org/2000/svg"><path stroke="#686868" d="M841 296.5H0M841 80.5H0M841 512.5H0M841 404.5H0M841 188.5H0M841 620.5H0M131.5 0v746M557.5 0v746M273.5 0v746M699.5 0v746M415.5 0v746M841.5 0v746"/></svg><svg fill="none" viewBox="0 0 768 568" id="gridMd" xmlns="http://www.w3.org/2000/svg"><path stroke="#686868" d="M768 271.207H0M768 73.956H0M768 468.458H0M768 369.833H0M768 172.582H0M768 567.083H0M120.5.4v566M509.5.4v566M249.5.4v566M638.5.4v566M379.5.4v566"/></svg></svg>