<?xml version="1.0" encoding="utf-8"?><svg viewBox="0 0 26 26" xmlns="http://www.w3.org/2000/svg" xmlns:xlink="http://www.w3.org/1999/xlink"><style>:root>svg{display:none}:root>svg:target{display:block}</style><svg viewBox="0 0 19 16" id="arrowSlider" xmlns="http://www.w3.org/2000/svg"><path d="M.293 7.293a1 1 0 000 1.414l6.364 6.364a1 1 0 001.414-1.414L2.414 8l5.657-5.657A1 1 0 006.657.93L.293 7.293zM19 7H1v2h18V7z"/></svg><svg viewBox="0 0 19 19" id="cross" xmlns="http://www.w3.org/2000/svg"><path d="M2.257 18.248a1.064 1.064 0 11-1.505-1.505L7.995 9.5.752 2.257A1.064 1.064 0 112.257.752L9.5 7.995 16.743.752a1.064 1.064 0 111.505 1.505L11.004 9.5l7.244 7.243a1.064 1.064 0 11-1.505 1.505L9.5 11.004l-7.243 7.244z"/></svg><svg viewBox="0 0 16 12" id="home" xmlns="http://www.w3.org/2000/svg"><path d="M7.788 3.113L2.667 7.181v4.39c0 .114.047.223.13.303.083.08.196.126.314.126l3.113-.008c.117 0 .23-.046.313-.126a.42.42 0 00.129-.302V9c0-.114.047-.223.13-.303a.453.453 0 01.314-.126h1.778c.118 0 .231.045.314.126.084.08.13.189.13.303v2.562a.416.416 0 00.13.304.446.446 0 00.315.126l3.111.008c.118 0 .231-.045.315-.126.083-.08.13-.189.13-.303V7.178l-5.12-4.065a.346.346 0 00-.425 0zm8.089 2.765l-2.322-1.846V.322a.316.316 0 00-.098-.228.34.34 0 00-.235-.094h-1.556a.34.34 0 00-.236.094.316.316 0 00-.097.227v1.946L8.846.293A1.364 1.364 0 008 0c-.31 0-.609.104-.847.293L.12 5.878a.324.324 0 00-.12.217.31.31 0 00.076.236l.708.83a.331.331 0 00.225.116.345.345 0 00.244-.072l6.534-5.19a.346.346 0 01.425 0l6.534 5.19a.336.336 0 00.243.072.342.342 0 00.226-.115l.708-.83a.317.317 0 00.074-.237.312.312 0 00-.121-.217z"/></svg><svg viewBox="0 0 18 14" id="mail" xmlns="http://www.w3.org/2000/svg"><path d="M17.659 4.623c.137-.113.341-.007.341.171v7.456c0 .966-.756 1.75-1.688 1.75H1.688C.756 14 0 13.216 0 12.25V4.798c0-.182.2-.284.341-.171.788.634 1.832 1.44 5.418 4.141C6.5 9.33 7.752 10.511 9 10.504c1.255.01 2.531-1.196 3.245-1.736 3.586-2.701 4.627-3.51 5.414-4.145zM9 9.333c.816.015 1.99-1.064 2.58-1.509 4.666-3.511 5.02-3.817 6.097-4.692a.884.884 0 00.323-.69V1.75C18 .784 17.244 0 16.312 0H1.688C.756 0 0 .784 0 1.75v.693c0 .27.12.521.323.689C1.4 4.003 1.754 4.313 6.42 7.824c.59.445 1.764 1.524 2.58 1.51z"/></svg><svg viewBox="0 0 18 18" id="phone" xmlns="http://www.w3.org/2000/svg"><path d="M.654.865L4.31.021a.85.85 0 01.967.49l1.687 3.937a.842.842 0 01-.242.984l-2.13 1.744a13.029 13.029 0 006.229 6.23l1.744-2.131a.843.843 0 01.984-.243l3.937 1.688a.854.854 0 01.492.97l-.843 3.656a.843.843 0 01-.823.654C7.31 18 0 10.705 0 1.688 0 1.294.27.953.654.865z"/></svg><svg viewBox="0 0 26 26" id="plus" xmlns="http://www.w3.org/2000/svg"><path d="M11.98 14.02H.754v-2.04h11.224V.755h2.041V11.98h11.225v2.04H14.02v11.225h-2.04V14.02z"/></svg><svg viewBox="0 0 24 21" id="quote" xmlns="http://www.w3.org/2000/svg"><path d="M.966 20.98L4.789.853h5.933L5.052 20.98H.967zm12.348 0L17.139.853h6.064l-5.58 20.127h-4.307z"/></svg><svg viewBox="0 0 14 14" id="watch" xmlns="http://www.w3.org/2000/svg"><path d="M7 0C3.133 0 0 3.133 0 7s3.133 7 7 7 7-3.133 7-7-3.133-7-7-7zm1.612 9.882l-2.49-1.81a.34.34 0 01-.138-.273v-4.75a.34.34 0 01.339-.34h1.354a.34.34 0 01.34.34v3.886L9.807 8.24c.153.11.184.322.074.474l-.796 1.095a.341.341 0 01-.474.074z"/></svg></svg>