<svg width="19" height="19" viewBox="0 0 19 19" fill="none" xmlns="http://www.w3.org/2000/svg">
<path d="M2.25676 18.2477C1.8413 18.6632 1.16771 18.6632 0.752254 18.2477C0.336796 17.8323 0.336796 17.1587 0.752254 16.7432L7.99549 9.5L0.752254 2.25676C0.336795 1.8413 0.336795 1.16771 0.752254 0.752255C1.16771 0.336796 1.8413 0.336796 2.25676 0.752255L9.5 7.99549L16.7432 0.752254C17.1587 0.336795 17.8323 0.336796 18.2477 0.752255C18.6632 1.16771 18.6632 1.84131 18.2477 2.25676L11.0045 9.5L18.2477 16.7432C18.6632 17.1587 18.6632 17.8323 18.2477 18.2477C17.8323 18.6632 17.1587 18.6632 16.7432 18.2477L9.5 11.0045L2.25676 18.2477Z" fill="white"/>
</svg>
